# xmcd
#
# Track frame offsets:
#	150
#	12595
#	23720
#	32147
#	44727
#	56727
#	69080
#	78905
#	89687
#	97397
#	107357
#	117675
#	125552
#	133135
#	141140
#	153905
#	165837
#	174167
#	184355
#	196350
#	205305
#	216172
#	228010
#	238225
#	249637
#	259547
#	269912
#	280372
#	290420
#	300512
#
# Disc length: 4156 seconds
#
# Revision: 1
# Processed by: cddbd v1.4PL0 Copyright (c) Steve Scherf et al.
# Submitted via: audiograbber 1.82.02
#
DISCID=c1103a1e
DTITLE=johnny cash - the ep collection ..plus
DYEAR=2000
DGENRE=rock
TTITLE0=i walk the line
TTITLE1=cry cry cry
TTITLE2=country boy
TTITLE3=next in line
TTITLE4=home of the blues
TTITLE5=give my love to rose
TTITLE6=rock island line
TTITLE7=train of love
TTITLE8=if the good lord's willing
TTITLE9=i could never be ashamed of you
TTITLE10=you win again
TTITLE11=i cant help it (if i'm still in love with you)
TTITLE12=hey good lookin
TTITLE13=wreck of the old '97
TTITLE14=folsom prison blues
TTITLE15=doin' my time
TTITLE16=guess things happen that way
TTITLE17=the ways of a woman in love
TTITLE18=you're the nearest thing to heaven
TTITLE19=remember me (i'm the one who loves you)
TTITLE20=i heard that lonesome whistle blow
TTITLE21=so doggone lonesome
TTITLE22=i was there when it happened
TTITLE23=big river
TTITLE24=ballad of a teenage queen
TTITLE25=there you go
TTITLE26=cold, cold heart
TTITLE27=hey porter
TTITLE28=get rhythm
TTITLE29=dont make me go
EXTD=
EXTT0=
EXTT1=
EXTT2=
EXTT3=
EXTT4=
EXTT5=
EXTT6=
EXTT7=
EXTT8=
EXTT9=
EXTT10=
EXTT11=
EXTT12=
EXTT13=
EXTT14=
EXTT15=
EXTT16=
EXTT17=
EXTT18=
EXTT19=
EXTT20=
EXTT21=
EXTT22=
EXTT23=
EXTT24=
EXTT25=
EXTT26=
EXTT27=
EXTT28=
EXTT29=
PLAYORDER=
